<svg xmlns="http://www.w3.org/2000/svg" viewBox="0 0 160 18" preserveAspectRatio="none">
  <path fill="#111111" d="M 0.00 9.35 L 3.33 8.83 L 6.67 8.16 L 10.00 7.37 L 13.33 6.52 L 16.67 5.68 L 20.00 4.90 L 23.33 4.23 L 26.67 3.71 L 30.00 3.39 L 33.33 3.28 L 36.67 3.38 L 40.00 3.64 L 43.33 4.00 L 46.67 4.41 L 50.00 4.91 L 53.33 5.60 L 56.67 6.50 L 60.00 7.47 L 63.33 8.31 L 66.67 8.87 L 70.00 9.15 L 73.33 9.16 L 76.67 8.92 L 80.00 8.47 L 83.33 7.84 L 86.67 7.06 L 90.00 6.17 L 93.33 5.20 L 96.67 4.19 L 100.00 3.16 L 103.33 2.28 L 106.67 1.74 L 110.00 1.65 L 113.33 1.97 L 116.67 2.53 L 120.00 3.24 L 123.33 4.08 L 126.67 5.04 L 130.00 6.11 L 133.33 7.23 L 136.67 8.34 L 140.00 9.36 L 143.33 10.24 L 146.67 10.93 L 150.00 11.39 L 153.33 11.58 L 156.67 11.50 L 160.00 11.16 L 160.00 14.41 L 156.67 14.70 L 153.33 14.79 L 150.00 14.66 L 146.67 14.31 L 143.33 13.78 L 140.00 13.09 L 136.67 12.29 L 133.33 11.44 L 130.00 10.60 L 126.67 9.82 L 123.33 9.17 L 120.00 8.73 L 116.67 8.57 L 113.33 8.73 L 110.00 9.12 L 106.67 9.58 L 103.33 10.00 L 100.00 10.42 L 96.67 10.95 L 93.33 11.62 L 90.00 12.36 L 86.67 13.06 L 83.33 13.65 L 80.00 14.05 L 76.67 14.25 L 73.33 14.22 L 70.00 13.97 L 66.67 13.53 L 63.33 12.99 L 60.00 12.39 L 56.67 11.71 L 53.33 10.84 L 50.00 9.77 L 46.67 8.64 L 43.33 7.68 L 40.00 7.01 L 36.67 6.67 L 33.33 6.63 L 30.00 6.88 L 26.67 7.38 L 23.33 8.11 L 20.00 9.03 L 16.67 10.09 L 13.33 11.21 L 10.00 12.34 L 6.67 13.40 L 3.33 14.34 L 0.00 15.09 Z"/>
</svg>
